<svg version="1.0" xmlns="http://www.w3.org/2000/svg"
 width="1024.000000pt" height="1024.000000pt" viewBox="0 0 1024.000000 1024.000000"
 preserveAspectRatio="xMidYMid meet">
<metadata>
Created by potrace 1.14, written by Peter Selinger 2001-2017
</metadata>
<g transform="translate(0.000000,1024.000000) scale(0.100000,-0.100000)"
fill="#000000" stroke="none">
<path d="M3902 8565 c-45 -7 -113 -22 -150 -34 -236 -73 -442 -291 -507 -536
-14 -54 -16 -340 -16 -2880 0 -2785 1 -2821 20 -2898 55 -213 226 -413 436
-508 34 -15 85 -34 111 -41 47 -12 48 -12 19 -18 -87 -18 295 -25 1298 -24
1020 2 1363 8 1237 24 l-45 5 75 24 c134 41 226 96 321 190 130 130 203 270
229 436 7 49 10 913 8 2850 -3 2643 -4 2783 -21 2840 -45 147 -150 314 -251
398 -111 92 -243 146 -413 172 -135 20 -2221 20 -2351 0z m2331 -310 c144 -30
272 -127 336 -253 66 -130 61 94 61 -2892 0 -2970 4 -2763 -57 -2889 -14 -29
-55 -85 -91 -122 -77 -83 -188 -143 -292 -159 -41 -6 -460 -10 -1120 -10
-1160 0 -1126 -1 -1256 62 -85 41 -185 138 -231 223 -68 129 -63 -103 -63
2883 0 1921 3 2716 11 2754 40 191 191 351 381 402 79 22 2220 23 2321 1z"/>
<path d="M3998 7976 c-86 -23 -168 -96 -205 -183 -25 -59 -22 -176 6 -241 30
-67 104 -135 173 -158 73 -24 181 -16 240 19 104 61 157 152 158 267 0 62 -5
85 -29 137 -35 73 -106 135 -183 158 -61 18 -97 18 -160 1z m152 -194 c14 -10
31 -37 39 -59 14 -38 13 -43 -10 -89 -19 -38 -32 -52 -63 -63 -33 -13 -44 -13
-79 0 -79 27 -109 114 -62 185 35 54 120 66 175 26z"/>
<path d="M4952 7369 c-207 -35 -399 -169 -515 -361 -111 -185 -128 -458 -42
-669 63 -156 210 -315 357 -387 118 -58 192 -75 328 -76 93 -1 129 4 190 23
263 81 460 291 525 559 22 91 22 253 1 344 -44 188 -181 375 -349 476 -139 84
-329 118 -495 91z m290 -366 c90 -42 160 -110 201 -192 30 -63 32 -72 32 -181
0 -108 -2 -119 -31 -180 -79 -165 -219 -249 -396 -237 -286 19 -454 299 -348
580 40 105 158 209 273 238 18 4 70 7 117 6 72 -3 96 -8 152 -34z"/>
<path d="M5002 6872 c-106 -35 -171 -116 -179 -226 -5 -53 -2 -72 19 -117 96
-209 362 -218 462 -17 99 199 -93 429 -302 360z"/>
<path d="M3827 6569 c-50 -29 -47 84 -47 -2106 l0 -2038 24 -50 c24 -53 139
-169 160 -162 8 3 11 495 11 1930 1 1059 4 1929 8 1933 4 4 156 -141 339 -322
l333 -328 6 -256 c3 -140 3 -655 1 -1145 -3 -490 -1 -1060 3 -1268 l7 -379 50
49 c91 89 82 -56 88 1398 3 710 6 1291 8 1293 12 13 47 -13 137 -98 58 -55
112 -100 121 -100 9 0 65 48 125 106 60 58 115 104 122 101 9 -3 13 -307 15
-1342 1 -737 6 -1343 10 -1347 11 -11 85 54 114 100 l23 37 5 1428 5 1427 320
320 c228 228 327 320 343 320 l22 0 0 -1930 c0 -1231 3 -1930 10 -1930 21 0
140 124 161 168 l23 47 -2 1760 c-1 968 -2 1891 -2 2051 l0 291 -26 27 c-18
18 -37 26 -61 26 -31 0 -74 -41 -606 -575 -455 -458 -577 -575 -597 -575 -20
0 -149 124 -600 575 -507 507 -578 575 -605 575 -16 0 -38 -5 -48 -11z"/>
</g>
</svg>
